<?xml version="1.0" encoding="UTF-8"?>
<!DOCTYPE svg PUBLIC "-//W3C//DTD SVG 1.1//EN" "http://www.w3.org/Graphics/SVG/1.1/DTD/svg11.dtd">
<!-- Creator: CorelDRAW X7 -->
<svg xmlns="http://www.w3.org/2000/svg" xml:space="preserve" width="3in" height="3in" version="1.1" style="shape-rendering:geometricPrecision; text-rendering:geometricPrecision; image-rendering:optimizeQuality; fill-rule:evenodd; clip-rule:evenodd"
viewBox="0 0 3000 3000"
 xmlns:xlink="http://www.w3.org/1999/xlink">
 <defs>
  <style type="text/css">
   <![CDATA[
    .fil0 {fill:#FEFEFE}
    .fil2 {fill:#3581C4}
    .fil1 {fill:#46AC34}
    .fil3 {fill:#EE7612}
    .fil4 {fill:white}
   ]]>
  </style>
 </defs>
 <g id="Layer_x0020_1">
  <metadata id="CorelCorpID_0Corel-Layer"/>
  <g id="_522470344">
   <path class="fil0" d="M901 662c4,6 41,31 47,35 20,16 71,61 86,79 13,14 18,12 -1,55 -26,-8 -38,-18 -72,-19 -171,-9 -232,211 -82,306 10,6 52,25 63,28 -30,5 -91,2 -126,4 -41,3 -80,8 -121,12l0 26 -45 7 45 9 0 26c81,20 105,18 197,50 183,62 325,160 441,300 142,170 207,388 252,608 6,29 12,78 20,103 53,-276 109,-536 301,-744 11,-13 15,-19 29,-32 7,-5 13,-15 31,-30 7,-6 10,-8 16,-14 33,-34 117,-90 164,-115 84,-47 169,-80 266,-104 33,-8 71,-13 103,-22l0 -26 47 -8 -47 -8 0 -26c-40,-4 -79,-9 -120,-12 -36,-2 -96,1 -127,-4 43,-12 85,-39 111,-71 61,-75 50,-198 -50,-248 -22,-11 -49,-17 -77,-16 -37,2 -48,12 -75,20 -18,-38 -14,-41 -2,-54 26,-29 77,-74 110,-97 6,-4 20,-11 24,-18l-5 -11c-41,10 -122,60 -163,79l-9 -24c-15,7 -40,24 -54,34 -18,11 -36,24 -52,36 -184,145 -288,307 -359,540 -14,45 -26,94 -36,143 -10,48 -14,107 -26,153 -38,-293 -127,-554 -323,-751 -39,-38 -155,-136 -205,-155l-7 23c-11,-3 -31,-15 -42,-21 -40,-22 -67,-34 -108,-52 -15,-7 -13,-7 -19,6z"/>
   <path class="fil1" d="M1055 387c-38,28 -80,67 -125,90 -102,51 -176,103 -260,173 -23,19 -93,86 -111,106 -62,72 -129,153 -180,253 -51,99 -91,191 -120,312 -61,254 -39,515 48,745 47,125 132,273 221,373 58,65 94,102 163,160l93 69c138,92 284,159 456,195 391,82 795,-19 1089,-261 21,-17 39,-34 58,-50l107 -111c108,-132 176,-243 236,-412 15,-41 42,-128 46,-172 -8,16 -17,54 -24,75 -9,25 -17,48 -27,72 -18,45 -41,93 -64,133 -66,115 -106,164 -188,254l-130 117c-271,215 -646,308 -1001,238 -224,-45 -434,-155 -567,-275 -5,-4 -8,-7 -13,-11 -5,-5 -8,-8 -13,-12 -8,-8 -18,-15 -26,-23 -18,-21 -24,-23 -48,-50 -100,-117 -147,-177 -217,-324 -89,-188 -130,-434 -99,-667 35,-260 156,-495 316,-667l184 -161c8,-6 21,-16 29,-20 21,-11 133,-36 163,-39 9,19 45,56 64,69 26,20 61,33 104,25 55,-9 104,-45 200,-68 -61,-51 -143,-116 -230,-103 -24,4 -66,22 -74,38 73,3 119,12 182,32l-4 14c-28,-2 -59,-9 -89,-12 -33,-2 -66,-3 -100,-2 -31,1 -62,4 -93,8 -23,3 -67,14 -86,14 24,-16 52,-31 79,-46 68,-37 199,-90 273,-105 -49,3 -164,40 -217,59 -22,8 -45,20 -66,25 5,-4 8,-9 14,-14 12,-11 36,-28 47,-44z"/>
   <path class="fil2" d="M1623 2011c1,-1 1,-2 1,-2 0,0 1,-1 1,-2 1,-2 2,-3 2,-5 1,-3 2,-7 3,-10l17 -61c46,-152 117,-283 219,-402 76,-89 175,-165 291,-225 118,-62 183,-73 307,-107 -107,-15 -275,-10 -380,5 -98,13 -99,23 -171,39 23,-134 129,-331 215,-432 17,-20 34,-39 51,-57l56 -54c-19,6 -61,31 -79,41 -43,26 -106,67 -142,99 -22,20 -43,37 -63,58 -72,75 -140,168 -193,289 -79,181 -112,391 -126,593 -5,69 -13,164 -9,233z"/>
   <path class="fil2" d="M1298 1241c-27,-5 -53,-16 -82,-23 -127,-30 -336,-39 -469,-21 125,37 181,41 306,107 176,92 329,234 419,408 45,89 76,162 103,259 3,10 7,32 12,40 5,-113 -15,-333 -32,-448 -39,-260 -121,-485 -295,-666 -10,-10 -19,-19 -30,-28l-101 -82c-24,-16 -47,-31 -74,-47 -18,-11 -60,-36 -80,-42l55 52c90,95 162,204 214,328 17,42 47,116 54,163z"/>
   <path class="fil3" d="M1652 2134c16,-17 80,-58 100,-70 35,-21 77,-40 120,-55 95,-34 196,-46 304,-44l0 -541c-17,-5 -57,-3 -75,-2 -40,2 -35,1 -59,20 -151,113 -258,269 -323,452 -14,38 -27,76 -38,117 -6,23 -30,103 -29,123z"/>
   <path class="fil3" d="M1035 1424l-1 541c108,-2 208,10 302,43 43,16 82,33 119,54l77 51c11,8 15,13 25,19 -2,-25 -22,-96 -30,-122 -11,-40 -23,-79 -37,-117 -55,-147 -129,-276 -238,-380l-40 -36c-13,-13 -29,-24 -44,-35 -23,-18 -18,-18 -56,-20 -19,-1 -60,-3 -77,2z"/>
   <path class="fil0" d="M997 1384c-1,115 10,94 -36,111l-112 46 0 130 -74 30 0 29 66 -26 0 482c29,-9 71,-33 131,-50 134,-39 264,-50 404,-29 21,3 65,9 75,16l-2 11c-14,3 -81,-3 -102,-2 -34,0 -68,2 -101,6 -143,17 -276,66 -403,128 -77,37 -68,27 -68,65 23,-10 48,-26 72,-37 206,-103 387,-149 626,-128l6 -10c0,0 1,-1 1,-2l72 29c5,4 16,13 19,17 0,-8 -5,-34 -8,-41 -2,-4 -23,-20 -29,-26 -4,3 -2,2 -4,4 -4,4 -1,2 -5,5 -50,-17 -89,-34 -146,-46 -56,-13 -116,-20 -176,-21 -62,-1 -122,4 -182,15 -74,13 -84,19 -148,44l-1 -573c15,-6 90,-40 103,-40l0 499c137,-12 263,-17 396,30 41,14 91,39 105,44l-10 -8c-4,-2 -7,-4 -11,-7l-70 -35c-36,-15 -67,-27 -106,-38 -39,-10 -80,-18 -121,-22 -23,-2 -45,-4 -68,-4 -17,-1 -59,3 -71,0l0 -569c31,-8 70,0 99,-4 -41,-37 -67,-30 -121,-23z"/>
   <path class="fil0" d="M2092 1407l99 2 0 572c-94,-3 -175,2 -262,26 -67,19 -153,53 -199,89 24,-7 65,-37 161,-61 129,-33 217,-26 344,-14l0 -501c12,1 63,24 79,31 9,3 24,6 24,15l0 568c-15,-4 -30,-14 -67,-25 -130,-40 -299,-43 -432,-15 -59,12 -101,29 -154,48l-9 -9c-27,26 -32,16 -39,67 9,-6 12,-10 19,-15 9,-8 13,-5 25,-10 16,-8 32,-14 49,-21l3 5c4,6 -2,1 4,7 206,-18 370,12 551,93 25,11 49,22 74,34 24,12 49,27 72,38 4,-37 6,-30 -67,-65 -159,-78 -322,-132 -504,-134 -25,-1 -84,5 -102,2l-2 -11 48 -12c173,-30 358,-13 518,56 13,6 30,15 43,19l1 -481 65 25 1 -30 -74 -28 0 -131c-22,-7 -77,-33 -110,-45 -48,-19 -37,3 -37,-112 -50,-7 -84,-14 -122,23z"/>
   <path class="fil3" d="M2384 2210c-16,-5 -69,-32 -106,-45 -80,-29 -163,-47 -249,-52 -32,-2 -117,-6 -142,4 162,6 304,52 444,115 22,10 43,21 64,31 18,8 46,27 61,31l0 -538c-14,-6 -60,-28 -72,-29l0 483z"/>
   <path class="fil3" d="M887 1571l0 539c54,-15 53,-20 124,-33 47,-9 96,-15 145,-16 73,-3 151,3 222,19 19,4 48,14 65,16 -45,-30 -156,-56 -220,-64 -44,-5 -89,-7 -133,-6l-130 10 0 -495 -73 30z"/>
   <path class="fil3" d="M754 1756l0 538 125 -62c45,-19 86,-37 135,-54 79,-28 235,-66 317,-61 -149,-17 -314,7 -450,68 -17,8 -38,20 -55,25l0 -483c-12,1 -58,23 -72,29z"/>
   <path class="fil3" d="M2250 2038c-140,-14 -242,-23 -382,18 -28,8 -80,26 -101,40 17,-2 44,-11 64,-16 135,-29 297,-26 431,11 20,5 43,15 61,19l0 -534c0,-10 -24,-16 -34,-20 -9,-4 -30,-14 -39,-14l0 496z"/>
   <path class="fil2" d="M931 854c-64,12 -114,74 -91,151 17,55 77,110 155,97 64,-11 112,-75 89,-150 -17,-56 -76,-112 -153,-98z"/>
   <path class="fil2" d="M2238 854c-62,10 -117,64 -117,134 0,71 60,126 137,114 62,-9 117,-65 117,-134 0,-71 -61,-126 -137,-114z"/>
   <path class="fil1" d="M1055 387c30,-19 123,-141 138,-179l14 5c-9,53 -69,123 -83,150 113,-17 133,-136 132,-254 -10,5 -39,28 -77,48 -81,42 -146,64 -133,176 1,18 8,39 9,54z"/>
   <path class="fil1" d="M1377 308c29,3 64,-5 126,3 24,4 94,26 105,26 -25,2 -80,-7 -145,-1 -47,4 -92,12 -137,16 11,18 44,44 65,55 65,36 120,0 176,-34 30,-17 49,-23 83,-38 -19,-19 -97,-55 -130,-63 -70,-18 -100,-2 -143,36z"/>
   <path class="fil4" d="M997 1148c68,9 108,7 183,21 18,3 40,9 57,11 -9,-43 -52,-135 -75,-178 -7,-12 -26,-47 -33,-54 2,72 -1,131 -72,174 -10,6 -18,9 -29,13 -9,3 -24,7 -31,13z"/>
   <path class="fil4" d="M1973 1180c16,-1 38,-8 55,-11 76,-14 114,-13 185,-21 -19,-16 -58,-7 -103,-66 -33,-43 -30,-74 -28,-134 -1,0 -2,0 -2,1l-59 109c-14,27 -42,92 -48,122z"/>
   <path class="fil0" d="M1062 1138c26,2 51,5 77,9 25,4 52,10 76,13 -9,-38 -51,-124 -69,-154 -8,20 -4,41 -29,78 -9,13 -14,19 -25,29 -5,4 -9,9 -14,13l-12 8c-3,2 -3,2 -4,4z"/>
  </g>
 </g>
</svg>
